<svg width="22" height="22" viewBox="0 0 22 22" fill="none" xmlns="http://www.w3.org/2000/svg">
<path d="M15.3977 17.0348H5.84051C4.51313 17.0348 3.98218 16.4684 3.98218 15.0614V14.1411C3.98218 12.7341 4.51313 12.1677 5.84051 12.1677H15.3977C16.725 12.1677 17.256 12.7341 17.256 14.1411V15.0614C17.256 16.4684 16.725 17.0348 15.3977 17.0348Z" stroke="#FEDC5A" stroke-width="1.32738" stroke-linecap="round" stroke-linejoin="round"/>
<path d="M13.6277 9.51281H7.61029C6.28291 9.51281 5.75195 8.94647 5.75195 7.53944V6.61912C5.75195 5.2121 6.28291 4.64575 7.61029 4.64575H13.6277C14.9551 4.64575 15.4861 5.2121 15.4861 6.61912V7.53944C15.4861 8.94647 14.9551 9.51281 13.6277 9.51281Z" stroke="#FEDC5A" stroke-width="1.32738" stroke-linecap="round" stroke-linejoin="round"/>
<path d="M10.6191 19.4683V17.3445" stroke="#FEDC5A" stroke-width="1.32738" stroke-linecap="round" stroke-linejoin="round"/>
<path d="M10.6191 11.504V9.73413" stroke="#FEDC5A" stroke-width="1.32738" stroke-linecap="round" stroke-linejoin="round"/>
<path d="M10.6191 1.76978V4.15021" stroke="#292D32" stroke-width="1.32738" stroke-linecap="round" stroke-linejoin="round"/>
</svg>
