<svg width="22" height="22" viewBox="0 0 22 22" fill="none" xmlns="http://www.w3.org/2000/svg">
<path d="M19.4682 13.2737V7.96422C19.4682 3.53962 17.6983 1.76978 13.2737 1.76978H7.96422C3.53962 1.76978 1.76978 3.53962 1.76978 7.96422V13.2737C1.76978 17.6983 3.53962 19.4682 7.96422 19.4682H13.2737C17.6983 19.4682 19.4682 17.6983 19.4682 13.2737Z" stroke="#F04037" stroke-width="1.32738" stroke-linecap="round" stroke-linejoin="round"/>
<path d="M2.22998 6.29175H19.0081" stroke="#F04037" stroke-width="1.32738" stroke-linecap="round" stroke-linejoin="round"/>
<path d="M7.53955 1.86719V6.1679" stroke="#F04037" stroke-width="1.32738" stroke-linecap="round" stroke-linejoin="round"/>
<path d="M13.6985 1.86719V5.76969" stroke="#F04037" stroke-width="1.32738" stroke-linecap="round" stroke-linejoin="round"/>
<path d="M8.62793 12.7872V11.7253C8.62793 10.3625 9.59249 9.80498 10.7694 10.4864L11.6898 11.0173L12.6101 11.5483C13.787 12.2297 13.787 13.3447 12.6101 14.0261L11.6898 14.557L10.7694 15.088C9.59249 15.7693 8.62793 15.2118 8.62793 13.8491V12.7872V12.7872Z" stroke="#F04037" stroke-width="1.32738" stroke-miterlimit="10" stroke-linecap="round" stroke-linejoin="round"/>
</svg>
