<svg width="22" height="22" viewBox="0 0 22 22" fill="none" xmlns="http://www.w3.org/2000/svg">
<path d="M5.98218 19.4682H15.2562C17.6985 19.4682 18.6719 17.9727 18.787 16.1497L19.2471 8.84029C19.371 6.92886 17.849 5.30946 15.9287 5.30946C15.3889 5.30946 14.8933 4.99974 14.6456 4.52188L14.0084 3.23874C13.6013 2.43347 12.5394 1.76978 11.6368 1.76978H9.61036C8.69889 1.76978 7.63699 2.43347 7.22992 3.23874L6.59278 4.52188C6.345 4.99974 5.84945 5.30946 5.30964 5.30946C3.38937 5.30946 1.8673 6.92886 1.99119 8.84029L2.45135 16.1497C2.55754 17.9727 3.5398 19.4682 5.98218 19.4682Z" stroke="#5454D4" stroke-width="1.32738" stroke-linecap="round" stroke-linejoin="round"/>
<path d="M9.29175 7.07935H11.9465" stroke="#5454D4" stroke-width="1.32738" stroke-linecap="round" stroke-linejoin="round"/>
<path d="M10.6192 15.9285C12.2032 15.9285 13.4951 14.6365 13.4951 13.0525C13.4951 11.4685 12.2032 10.1765 10.6192 10.1765C9.03515 10.1765 7.74316 11.4685 7.74316 13.0525C7.74316 14.6365 9.03515 15.9285 10.6192 15.9285Z" stroke="#5454D4" stroke-width="1.32738" stroke-linecap="round" stroke-linejoin="round"/>
</svg>
