<svg width="22" height="22" viewBox="0 0 22 22" fill="none" xmlns="http://www.w3.org/2000/svg">
<path d="M7.96439 11.5039C7.38035 11.7959 6.89364 12.2295 6.53082 12.7693C6.32729 13.0791 6.32729 13.4684 6.53082 13.7782C6.89364 14.318 7.38035 14.7516 7.96439 15.0436" stroke="#FEDC5A" stroke-width="1.32738" stroke-linecap="round" stroke-linejoin="round"/>
<path d="M13.4597 11.5039C14.0438 11.7959 14.5305 12.2295 14.8933 12.7693C15.0968 13.0791 15.0968 13.4684 14.8933 13.7782C14.5305 14.318 14.0438 14.7516 13.4597 15.0436" stroke="#FEDC5A" stroke-width="1.32738" stroke-linecap="round" stroke-linejoin="round"/>
<path d="M7.96422 19.4682H13.2737C17.6983 19.4682 19.4682 17.6983 19.4682 13.2737V7.96422C19.4682 3.53962 17.6983 1.76978 13.2737 1.76978H7.96422C3.53962 1.76978 1.76978 3.53962 1.76978 7.96422V13.2737C1.76978 17.6983 3.53962 19.4682 7.96422 19.4682Z" stroke="#FEDC5A" stroke-width="1.32738" stroke-linecap="round" stroke-linejoin="round"/>
<path d="M1.97339 7.0882L18.9816 7.07935" stroke="#FEDC5A" stroke-width="1.32738" stroke-linecap="round" stroke-linejoin="round"/>
</svg>
