<svg width="22" height="22" viewBox="0 0 22 22" fill="none" xmlns="http://www.w3.org/2000/svg">
<path d="M11.5129 2.58387L16.7339 4.90236C18.2383 5.56605 18.2383 6.66336 16.7339 7.32705L11.5129 9.64554C10.92 9.91101 9.9466 9.91101 9.3537 9.64554L4.13267 7.32705C2.6283 6.66336 2.6283 5.56605 4.13267 4.90236L9.3537 2.58387C9.9466 2.3184 10.92 2.3184 11.5129 2.58387Z" stroke="#F04037" stroke-width="1.32738" stroke-linecap="round" stroke-linejoin="round"/>
<path d="M2.65479 9.73413C2.65479 10.4775 3.21229 11.3358 3.89367 11.6367L9.90228 14.3092C10.3624 14.5127 10.8845 14.5127 11.3359 14.3092L17.3445 11.6367C18.0259 11.3358 18.5834 10.4775 18.5834 9.73413" stroke="#F04037" stroke-width="1.32738" stroke-linecap="round" stroke-linejoin="round"/>
<path d="M2.65479 14.1587C2.65479 14.9817 3.14149 15.725 3.89367 16.0613L9.90228 18.7337C10.3624 18.9373 10.8845 18.9373 11.3359 18.7337L17.3445 16.0613C18.0966 15.725 18.5834 14.9817 18.5834 14.1587" stroke="#F04037" stroke-width="1.32738" stroke-linecap="round" stroke-linejoin="round"/>
</svg>
